<svg width="93" height="130" viewBox="0 0 93 130" fill="none" xmlns="http://www.w3.org/2000/svg">
<path d="M20.9205 43.4503L4.44159 3.99099L0 1.67364V0.643708H17.0583V1.67364L11.458 4.11974L23.4954 33.0866H23.8172L35.7258 3.92662L30.383 1.67364V0.643708H43.9653V1.67364L40.2962 3.66914L23.4954 43.4503H20.9205Z" fill="#fcfcfc"/>
<path d="M69.9581 43.7722C66.8683 43.7722 63.993 43.2358 61.3324 42.1629C58.7146 41.0472 56.4187 39.5237 54.4447 37.5926C52.5135 35.6185 51.0116 33.3012 49.9387 30.6405C48.8659 27.9799 48.3294 25.0617 48.3294 21.8861C48.3294 18.7105 48.8659 15.7923 49.9387 13.1317C51.0116 10.471 52.5135 8.1751 54.4447 6.24397C56.4187 4.26993 58.7146 2.74649 61.3324 1.67364C63.993 0.55788 66.8683 0 69.9581 0C73.0479 0 75.9016 0.55788 78.5194 1.67364C81.18 2.74649 83.4759 4.26993 85.4071 6.24397C87.3811 8.1751 88.9045 10.471 89.9774 13.1317C91.0932 15.7923 91.651 18.7105 91.651 21.8861C91.651 25.0617 91.0932 27.9799 89.9774 30.6405C88.9045 33.3012 87.3811 35.6185 85.4071 37.5926C83.4759 39.5237 81.18 41.0472 78.5194 42.1629C75.9016 43.2358 73.0479 43.7722 69.9581 43.7722ZM71.2455 40.5536C73.8632 40.5536 76.1591 39.867 78.1332 38.4938C80.1072 37.1205 81.6521 35.1894 82.7679 32.7004C83.8836 30.2114 84.4415 27.2718 84.4415 23.8816C84.4415 19.7189 83.7549 16.0927 82.3816 13.0029C81.0084 9.8702 79.1416 7.44556 76.7814 5.72901C74.4211 4.01245 71.8034 3.15417 68.9281 3.15417C66.3104 3.15417 63.993 3.84079 61.9761 5.21404C59.9591 6.54437 58.3713 8.45404 57.2126 10.943C56.0969 13.4321 55.539 16.3717 55.539 19.7619C55.539 23.9245 56.2256 27.5722 57.5988 30.7049C59.015 33.8376 60.9032 36.2623 63.2635 37.9788C65.6667 39.6954 68.3273 40.5536 71.2455 40.5536Z" fill="#fcfcfc"/>
<path d="M23.8172 129.6C20.7274 129.6 17.8522 129.085 15.1915 128.055C12.5738 127.025 10.2993 125.588 8.36821 123.742C6.43709 121.854 4.91364 119.644 3.79788 117.112C2.72503 114.58 2.18861 111.812 2.18861 108.808C2.18861 105.504 2.7894 102.457 3.99099 99.6676C5.2355 96.8782 6.9306 94.4535 9.07629 92.3936C11.222 90.2909 13.6895 88.6816 16.4789 87.5658C19.2683 86.4072 22.2509 85.8278 25.4265 85.8278C27.7009 85.8278 29.6321 85.9566 31.2199 86.214C32.8077 86.4715 34.2238 86.8363 35.4683 87.3083C36.7558 87.7804 38.0003 88.3168 39.2019 88.9176L39.5881 99.7319H38.5582L33.9234 92.0074C32.2498 90.8917 30.8122 90.1192 29.6106 89.6901C28.409 89.2609 27.0143 89.0464 25.4265 89.0464C22.2509 89.0464 19.4185 89.7759 16.9295 91.235C14.4405 92.694 12.4879 94.711 11.0718 97.2858C9.65563 99.8607 8.94755 102.8 8.94755 106.105C8.94755 110.267 9.69854 113.829 11.2005 116.79C12.7025 119.751 14.698 122.026 17.187 123.614C19.7189 125.158 22.5513 125.931 25.684 125.931C26.9285 125.931 28.1515 125.867 29.3531 125.738C30.5976 125.566 31.8421 125.266 33.0866 124.837V113.829L27.3576 111.19V110.16H44.3515V111.19L39.8456 114.022V124.193C38.5581 125.309 37.0132 126.274 35.2109 127.09C33.4085 127.862 31.5203 128.484 29.5462 128.956C27.5722 129.385 25.6625 129.6 23.8172 129.6Z" fill="#fcfcfc"/>
<path d="M47.9623 128.956V127.926L52.0177 125.802L68.561 86.1497H72.1014L88.4516 125.609L92.7644 127.926V128.956H75.7705V127.926L81.4352 125.673L76.6717 114.087H61.1584L56.4593 125.738L61.8664 127.926V128.956H47.9623ZM62.6389 110.546H75.2556L68.9472 95.0329L62.6389 110.546Z" fill="#fcfcfc"/>
</svg>
