<svg width="192" height="44" viewBox="0 0 192 44" fill="none" xmlns="http://www.w3.org/2000/svg">
<path d="M21.784 43.32L5.4 4.088L0.984 1.784V0.759998H17.944V1.784L12.376 4.216L24.344 33.016H24.664L36.504 4.024L31.192 1.784V0.759998H44.696V1.784L41.048 3.768L24.344 43.32H21.784ZM70.539 43.64C67.467 43.64 64.6083 43.1067 61.963 42.04C59.3603 40.9307 57.0777 39.416 55.115 37.496C53.195 35.5333 51.7017 33.2293 50.635 30.584C49.5683 27.9387 49.035 25.0373 49.035 21.88C49.035 18.7227 49.5683 15.8213 50.635 13.176C51.7017 10.5307 53.195 8.248 55.115 6.328C57.0777 4.36533 59.3603 2.85066 61.963 1.784C64.6083 0.674665 67.467 0.119999 70.539 0.119999C73.611 0.119999 76.4483 0.674665 79.051 1.784C81.6963 2.85066 83.979 4.36533 85.899 6.328C87.8617 8.248 89.3763 10.5307 90.443 13.176C91.5523 15.8213 92.107 18.7227 92.107 21.88C92.107 25.0373 91.5523 27.9387 90.443 30.584C89.3763 33.2293 87.8617 35.5333 85.899 37.496C83.979 39.416 81.6963 40.9307 79.051 42.04C76.4483 43.1067 73.611 43.64 70.539 43.64ZM71.819 40.44C74.4217 40.44 76.7043 39.7573 78.667 38.392C80.6297 37.0267 82.1657 35.1067 83.275 32.632C84.3843 30.1573 84.939 27.2347 84.939 23.864C84.939 19.7253 84.2563 16.12 82.891 13.048C81.5257 9.93333 79.6697 7.52267 77.323 5.816C74.9763 4.10933 72.3737 3.256 69.515 3.256C66.9123 3.256 64.6083 3.93866 62.603 5.304C60.5977 6.62666 59.019 8.52533 57.867 11C56.7577 13.4747 56.203 16.3973 56.203 19.768C56.203 23.9067 56.8857 27.5333 58.251 30.648C59.659 33.7627 61.5363 36.1733 63.883 37.88C66.2723 39.5867 68.9177 40.44 71.819 40.44ZM122.789 43.64C119.717 43.64 116.858 43.128 114.213 42.104C111.61 41.08 109.349 39.6507 107.429 37.816C105.509 35.9387 103.994 33.7413 102.885 31.224C101.818 28.7067 101.285 25.9547 101.285 22.968C101.285 19.6827 101.882 16.6533 103.077 13.88C104.314 11.1067 106 8.696 108.133 6.648C110.266 4.55733 112.72 2.95733 115.493 1.848C118.266 0.695999 121.232 0.119999 124.389 0.119999C126.65 0.119999 128.57 0.247999 130.149 0.503998C131.728 0.759997 133.136 1.12266 134.373 1.592C135.653 2.06133 136.89 2.59466 138.085 3.192L138.469 13.944H137.445L132.837 6.264C131.173 5.15467 129.744 4.38667 128.549 3.96C127.354 3.53333 125.968 3.32 124.389 3.32C121.232 3.32 118.416 4.04533 115.941 5.496C113.466 6.94666 111.525 8.952 110.117 11.512C108.709 14.072 108.005 16.9947 108.005 20.28C108.005 24.4187 108.752 27.96 110.245 30.904C111.738 33.848 113.722 36.1093 116.197 37.688C118.714 39.224 121.53 39.992 124.645 39.992C125.882 39.992 127.098 39.928 128.293 39.8C129.53 39.6293 130.768 39.3307 132.005 38.904V27.96L126.309 25.336V24.312H143.205V25.336L138.725 28.152V38.264C137.445 39.3733 135.909 40.3333 134.117 41.144C132.325 41.912 130.448 42.5307 128.485 43C126.522 43.4267 124.624 43.64 122.789 43.64ZM146.795 43V41.976L150.827 39.864L167.275 0.439999H170.795L187.051 39.672L191.339 41.976V43H174.443V41.976L180.075 39.736L175.339 28.216H159.915L155.243 39.8L160.619 41.976V43H146.795ZM161.387 24.696H173.931L167.659 9.272L161.387 24.696Z" fill="#142D05"/>
</svg>
